<?xml version="1.0" standalone="no"?>
<!DOCTYPE svg PUBLIC "-//W3C//DTD SVG 20010904//EN"
 "http://www.w3.org/TR/2001/REC-SVG-20010904/DTD/svg10.dtd">
<svg version="1.0" xmlns="http://www.w3.org/2000/svg"
 width="1200.000000pt" height="1200.000000pt" viewBox="0 0 1200.000000 1200.000000"
 preserveAspectRatio="xMidYMid meet">

<g transform="translate(0.000000,1200.000000) scale(0.100000,-0.100000)"
fill="#000000" stroke="none">
<path d="M6200 6485 l0 -1885 1885 0 1885 0 0 1885 0 1885 -1885 0 -1885 0 0
-1885z m1270 380 c3 -93 3 -183 0 -200 l-6 -30 -119 0 c-134 0 -126 -6 -140
98 -6 46 -7 47 -40 47 -19 0 -36 -4 -39 -8 -2 -4 -6 -134 -8 -287 l-3 -280 50
-1 c28 -1 56 -2 63 -3 10 -1 12 -28 10 -113 l-3 -113 -271 -3 -272 -2 -5 22
c-7 30 -8 168 -1 191 4 14 17 17 65 17 l59 0 0 291 0 290 -42 -3 -43 -3 -3
-67 c-2 -41 -8 -71 -17 -78 -9 -8 -46 -9 -127 -3 l-113 8 -8 125 c-10 164 -6
258 13 270 9 6 215 9 505 7 l490 -2 5 -170z m1040 156 c14 -28 13 -328 -1
-337 -7 -4 -54 -9 -105 -12 -108 -5 -124 2 -124 57 0 61 -17 75 -81 67 -30 -4
-87 -7 -126 -6 l-73 1 0 -85 c0 -46 3 -91 6 -100 5 -13 27 -16 135 -16 l129 0
0 -120 0 -119 -132 -3 -133 -3 -3 -37 c-2 -20 1 -51 6 -70 8 -32 10 -33 68
-38 l59 -5 3 -107 c3 -105 2 -108 -20 -113 -13 -3 -138 -4 -278 -3 l-255 3 -3
80 c-2 44 0 94 3 112 5 31 8 32 58 35 l52 3 0 295 0 295 -45 3 c-27 2 -50 9
-57 19 -15 20 -17 160 -3 197 l10 26 449 0 c435 0 451 -1 461 -19z m1130 0
c11 -21 14 -348 4 -375 -5 -13 -26 -16 -125 -16 -134 0 -122 -8 -137 95 -8 52
-20 63 -65 51 -22 -5 -22 -7 -25 -292 l-2 -286 55 4 c44 4 58 1 64 -11 4 -9 6
-62 3 -118 l-4 -103 -274 0 -275 0 3 113 3 112 56 3 57 3 7 172 c3 95 5 224 3
287 l-3 115 -40 0 -40 0 -7 -69 c-4 -38 -11 -73 -16 -78 -5 -5 -58 -6 -125 -2
-94 6 -118 10 -122 23 -2 9 -6 96 -7 194 -3 149 -1 179 12 187 9 6 213 10 502
10 472 0 488 -1 498 -19z"/>
<path d="M3900 7761 c-48 -15 -105 -50 -136 -83 -45 -49 -67 -90 -117 -218
-134 -348 -253 -483 -525 -596 -160 -67 -231 -114 -391 -259 -316 -285 -538
-458 -648 -506 -26 -12 -95 -29 -153 -38 -100 -16 -105 -17 -105 -41 0 -23 7
-26 94 -46 l94 -22 218 154 c120 85 221 154 226 154 5 0 44 -35 87 -79 l78
-78 -108 -154 c-59 -85 -125 -178 -147 -208 l-40 -54 41 -127 40 -127 -19
-114 c-10 -63 -19 -117 -19 -122 0 -6 246 -4 257 2 1 1 -13 33 -32 73 -32 67
-35 80 -35 168 0 52 3 118 6 146 l6 51 146 37 145 37 146 149 146 150 500 80
c275 44 516 83 537 86 l36 6 12 -56 c6 -31 9 -60 6 -65 -3 -4 -20 -11 -38 -15
-18 -3 -66 -13 -105 -22 l-73 -16 0 -104 c0 -57 2 -104 5 -104 10 0 510 211
517 218 4 4 -6 115 -22 246 -16 131 -28 242 -25 245 4 8 171 111 178 111 2 0
-4 -43 -13 -96 l-18 -95 22 -9 c11 -4 58 -24 103 -43 92 -40 114 -39 142 7 33
52 77 87 133 106 l53 17 19 102 20 101 30 -5 c17 -3 96 -12 175 -21 138 -15
173 -12 158 13 -3 5 -74 40 -156 78 -83 38 -150 70 -148 71 1 1 99 41 217 89
118 49 219 92 224 97 6 5 6 12 -2 20 -8 8 -58 7 -204 -6 -106 -9 -213 -19
-239 -22 l-45 -6 -89 118 c-218 291 -351 425 -495 495 -52 26 -133 59 -179 73
-159 50 -415 80 -491 57z"/>
<path d="M1774 4066 c-3 -8 -4 -27 -2 -43 3 -26 7 -28 51 -31 l47 -3 0 -180 0
-179 40 0 40 0 0 179 0 180 48 3 47 3 0 40 0 40 -133 3 c-108 2 -133 0 -138
-12z"/>
<path d="M2318 3973 c0 -59 -1 -160 -1 -223 l1 -115 38 0 39 0 3 83 3 82 59 0
59 0 3 -82 3 -83 40 0 40 0 0 220 0 220 -37 3 -37 3 -3 -93 -3 -93 -62 -3 -62
-3 -3 93 -3 93 -37 3 -38 3 -2 -108z"/>
<path d="M2898 3978 c-1 -57 -1 -157 -1 -223 l1 -120 128 0 129 0 0 40 0 40
-87 3 -88 3 0 49 0 50 85 0 85 0 0 45 0 45 -85 0 -85 0 0 40 0 39 88 3 87 3 0
40 0 40 -127 3 -128 3 -2 -103z"/>
<path d="M3834 4067 c-2 -7 -3 -107 -2 -222 l3 -210 35 0 35 0 3 92 3 92 87 3
87 3 0 40 0 40 -81 3 -82 3 -4 39 -4 40 88 0 88 0 0 45 0 45 -125 0 c-93 0
-127 -3 -131 -13z"/>
<path d="M4367 4068 c-7 -22 4 -311 14 -350 5 -21 23 -48 41 -63 29 -25 38
-27 104 -23 60 3 77 8 99 28 39 37 46 80 43 255 l-3 160 -40 0 -40 0 0 -161
c0 -145 -2 -164 -19 -183 -22 -24 -63 -27 -92 -7 -17 13 -19 30 -22 185 l-3
171 -39 0 c-22 0 -40 -5 -43 -12z"/>
<path d="M4955 4068 c-3 -7 -4 -108 -3 -223 l3 -210 38 -3 37 -3 0 125 c0 69
3 126 8 126 4 0 40 -57 81 -126 l74 -125 36 3 36 3 0 220 0 220 -37 3 c-21 2
-38 2 -39 0 0 -2 -3 -57 -6 -123 -3 -66 -6 -121 -8 -123 -1 -1 -36 53 -76 120
-68 113 -77 123 -107 126 -20 2 -34 -2 -37 -10z"/>
<path d="M5567 4072 c-9 -13 -20 -369 -13 -406 l7 -36 90 0 c106 0 148 15 179
65 17 28 20 49 20 154 0 151 -11 183 -72 211 -31 14 -65 20 -125 20 -45 0 -84
-3 -86 -8z m185 -100 c19 -22 18 -213 -1 -235 -9 -12 -29 -17 -62 -17 l-49 0
0 133 c0 74 2 136 4 138 11 10 96 -4 108 -19z"/>
<path d="M6247 4073 c-8 -13 -124 -376 -132 -411 l-7 -33 43 3 c40 3 43 5 57
46 l14 42 68 0 68 0 14 -42 c13 -38 19 -43 48 -46 18 -2 36 0 41 5 9 9 -99
361 -127 416 -12 21 -22 27 -49 27 -18 0 -36 -3 -38 -7z m67 -207 c9 -27 16
-51 16 -53 0 -2 -18 -3 -40 -3 -22 0 -40 3 -40 7 0 21 35 112 41 106 3 -5 14
-30 23 -57z"/>
<path d="M7110 4036 l0 -45 47 -3 47 -3 0 -175 1 -175 40 0 40 0 3 178 2 177
45 0 45 0 0 45 0 45 -135 0 -135 0 0 -44z"/>
<path d="M7655 4068 c-3 -7 -4 -108 -3 -223 l3 -210 38 -3 37 -3 0 79 c0 43 3
82 6 85 4 4 33 -32 66 -78 l59 -85 45 0 c25 0 44 5 44 11 0 6 -23 42 -51 81
-58 80 -67 98 -47 98 7 0 29 13 48 28 31 26 34 34 38 94 4 61 2 67 -26 99
l-30 34 -111 3 c-87 3 -112 1 -116 -10z m191 -93 c14 -21 15 -31 6 -50 -10
-22 -18 -25 -67 -25 l-55 0 0 43 c0 24 3 47 7 50 3 4 26 7 49 7 36 0 47 -5 60
-25z"/>
<path d="M8286 3943 c-24 -76 -56 -175 -70 -221 -27 -91 -25 -97 31 -90 23 2
31 11 43 46 l15 43 69 -3 69 -3 15 -42 c13 -41 16 -43 53 -43 26 0 39 4 39 14
0 22 -121 389 -136 414 -10 16 -24 22 -48 22 l-34 0 -46 -137z m108 -70 c9
-26 16 -50 16 -55 0 -4 -18 -8 -41 -8 -31 0 -40 3 -36 14 3 8 11 32 18 55 7
23 16 41 20 41 4 0 14 -21 23 -47z"/>
<path d="M8827 4072 c-9 -13 -20 -369 -13 -406 l7 -36 90 0 c106 0 148 15 179
65 17 28 20 49 20 154 0 151 -11 183 -72 211 -31 14 -65 20 -125 20 -45 0 -84
-3 -86 -8z m185 -100 c19 -22 18 -213 -1 -235 -9 -12 -29 -17 -62 -17 l-49 0
0 133 c0 74 2 136 4 138 11 10 96 -4 108 -19z"/>
<path d="M9398 3978 c-1 -57 -1 -157 -1 -223 l1 -120 128 0 129 0 0 40 0 40
-87 3 -88 3 0 49 0 50 85 0 85 0 0 45 0 45 -85 0 -85 0 0 40 0 39 88 3 87 3 0
40 0 40 -127 3 -128 3 -2 -103z"/>
<path d="M9937 4043 c-3 -21 -4 -121 -2 -223 l4 -185 38 0 38 0 5 84 5 83 49
-72 c27 -40 56 -78 64 -86 14 -15 87 -19 96 -6 2 4 -22 44 -54 87 -63 86 -68
95 -46 95 27 0 84 64 91 101 10 56 -10 117 -48 139 -26 16 -50 20 -133 20
l-101 0 -6 -37z m187 -59 c19 -18 21 -55 4 -72 -7 -7 -34 -12 -60 -12 l-48 0
0 50 0 50 44 0 c27 0 51 -6 60 -16z"/>
</g>
</svg>
